<?xml version="1.0" encoding="utf-8"?>
<?xml-stylesheet type="text/xsl" href="rss1.xsl"?>
<rss version="2.0" xmlns:atom="http://www.w3.org/2005/Atom" xmlns:content="http://purl.org/rss/1.0/modules/content/" xmlns:dc="http://purl.org/dc/elements/1.1/" xmlns:media="http://search.yahoo.com/mrss/">
<channel>
 <title>Getty</title>
 <link>http://www.gettyimg.com/</link>
 <atom:link href="http://www.gettyimg.com/" rel="self" type="application/rss+xml" />

 
                <item>
                <title><![CDATA[【Albums (lossy)】Dolby Atmos - XXXTENTACION - SKINS [E-AC3-JOC | 16bits/48kHz | 5.1 | 768kbits]]]></title>
                <link><![CDATA[https://sharemania.us/threads/xxxtentacion-skins-e-ac3-joc-16bits-48khz-5-1-768kbits.235549/]]></link>
                <description><![CDATA[<article>
<blockquote class="messageText SelectQuoteContainer ugc baseHtml">
<img src="https://a5.mzstatic.com/us/r1000/0/Music115/v4/9f/ed/83/9fed8304-a865-af85-8d99-6d063cd60c93/dj.ipmigxtf.jpg" class="bbCodeImage LbImage" alt="[​IMG]" data-url="https://a5.mzstatic.com/us/r1000/0/Music115/v4/9f/ed/83/9fed8304-a865-af85-8d99-6d063cd60c93/dj.ipmigxtf.jpg" style=""> <br>
<br>
<span style="font-family: 'Book Antiqua'"><b><b>Artist</b>: </b>XXXTENTACION<br>
<b><b>Album</b>: </b>SKINS <br>
<b><b>Release</b>: </b>07/12/2018<br>
<b><b>Format</b>: .</b>m4a Enhanced AC-3 with Joint Object Coding<br>
<b><b>Sample Rate</b>: </b>768 Kbps, 48.000 kHz - 5.1 Surround Sound<br>
<b><b>Quality</b>: </b>High Quality, Lossy Audio, Apple Core Media Audio</span><br>
<b><span style="font-family: 'Book Antiqua'"><b>Source</b>: <a href="https://music.apple.com/us/album/skins/1441480826" target="_blank" class="externalLink" rel="nofollow">Apple Music</a></span></b><br>
<br>
<div class="bbCodeBlock bbCodeVfcHH HiddenContent">
<div class="attribution type">Hidden Content:</div>
<blockquote>You must reply before you can see the hidden data contained here.</blockquote>
</div>
<div class="messageTextEndMarker">&nbsp;</div>
</blockquote>
</article>]]></description>
                <author><![CDATA[SonMaxime]]></author>
                </item>

                
                <item>
                <title><![CDATA[【Music Videos】Snap - Rhythm is a Dancer (1080p 5.1)]]></title>
                <link><![CDATA[https://sharemania.us/threads/snap-rhythm-is-a-dancer-1080p-5-1.235548/]]></link>
                <description><![CDATA[<article>
<blockquote class="messageText SelectQuoteContainer ugc baseHtml">
<img src="https://i.ibb.co/VYmLrrs/Snap-Rhythm-is-a-Dancer-1080p-5-1-mp4-thumbs-2024-01-10-13-22-05.jpg" class="bbCodeImage LbImage" alt="[​IMG]" data-url="https://i.ibb.co/VYmLrrs/Snap-Rhythm-is-a-Dancer-1080p-5-1-mp4-thumbs-2024-01-10-13-22-05.jpg" style=""> <br>
<br>
<div class="ToggleTriggerAnchor bbCodeSpoilerContainer">
<button type="button" class="button bbCodeSpoilerButton ToggleTrigger Tooltip JsOnly" data-target="> .SpoilerTarget"><span>Spoiler: <span class="SpoilerTitle">MediaInfo</span></span></button>
<div class="SpoilerTarget bbCodeSpoilerText">Snap - Rhythm is a Dancer (1080p 5.1).mp4<br>
Format : MPEG-4<br>
Format profile : Base Media / Version 2<br>
Codec ID : mp42 (mp42/mp41)<br>
File size : 272 MiB<br>
Duration : 3 min 41 s<br>
Overall bit rate mode : Variable<br>
Overall bit rate : 10.3 Mb/s<br>
Frame rate : 30.000 FPS<br>
Encoded date : 2024-01-10 04:07:25 UTC<br>
Tagged date : 2024-01-10 04:08:04 UTC<br>
TIM : 00:00:00:00<br>
TSC : 30<br>
TSZ : 1<br>
<br>
Video<br>
ID : 1<br>
Format : AVC<br>
Format/Info : Advanced Video Codec<br>
Format profile : Main@L4.1<br>
Format settings : CABAC / 4 Ref Frames<br>
Format settings, CABAC : Yes<br>
Format settings, Reference : 4 frames<br>
Codec ID : avc1<br>
Codec ID/Info : Advanced Video Coding<br>
Duration : 3 min 41 s<br>
Bit rate : 9 987 kb/s<br>
Width : 1 920 pixels<br>
Height : 1 080 pixels<br>
Display aspect ratio : 16:9<br>
Frame rate mode : Constant<br>
Frame rate : 30.000 FPS<br>
Color space : YUV<br>
Chroma subsampling : 4:2:0<br>
Bit depth : 8 bits<br>
Scan type : Progressive<br>
Bits/(Pixel*Frame) : 0.161<br>
Stream size : 263 MiB (97%)<br>
Language : English<br>
Encoded date : 2024-01-10 04:07:25 UTC<br>
Tagged date : 2024-01-10 04:07:25 UTC<br>
Color range : Limited<br>
Color primaries : BT.709<br>
Transfer characteristics : BT.709<br>
Matrix coefficients : BT.709<br>
Codec configuration box : avcC<br>
<br>
Audio<br>
ID : 2<br>
Format : AAC LC<br>
Format/Info : Advanced Audio Codec Low Complexity<br>
Codec ID : mp4a-40-2<br>
Duration : 3 min 41 s<br>
Source duration : 3 min 41 s<br>
Bit rate mode : Variable<br>
Bit rate : 317 kb/s<br>
Maximum bit rate : 354 kb/s<br>
Channel(s) : 6 channels<br>
Channel layout : C L R Ls Rs LFE<br>
Sampling rate : 48.0 kHz<br>
Frame rate : 46.875 FPS (1024 SPF)<br>
Compression mode : Lossy<br>
Stream size : 8.36 MiB (3%)<br>
Source stream size : 8.37 MiB (3%)<br>
Language : English<br>
Encoded date : 2024-01-10 04:07:25 UTC<br>
Tagged date : 2024-01-10 04:07:25 UTC</div>
</div><br>
<div class="bbCodeBlock bbCodeVfcHH HiddenContent">
<div class="attribution type">Hidden Content:</div>
<blockquote>You must reply before you can see the hidden data contained here.</blockquote>
</div>
<div class="messageTextEndMarker">&nbsp;</div>
</blockquote>
</article>]]></description>
                <author><![CDATA[DJ-RoGeRs-BS]]></author>
                </item>

                
                <item>
                <title><![CDATA[【Albums (lossy)】Dolby Atmos - XXXTENTACION - Bad Vibes Forever [E-AC3-JOC | 16bits/48kHz | 5.1 | 768kbits]]]></title>
                <link><![CDATA[https://sharemania.us/threads/xxxtentacion-bad-vibes-forever-e-ac3-joc-16bits-48khz-5-1-768kbits.235547/]]></link>
                <description><![CDATA[<article>
<blockquote class="messageText SelectQuoteContainer ugc baseHtml">
<img src="https://a5.mzstatic.com/us/r1000/0/Music125/v4/6d/7b/91/6d7b91ed-4820-fc05-0cf1-272f4b25285e/194690007002_cover.jpg" class="bbCodeImage LbImage" alt="[​IMG]" data-url="https://a5.mzstatic.com/us/r1000/0/Music125/v4/6d/7b/91/6d7b91ed-4820-fc05-0cf1-272f4b25285e/194690007002_cover.jpg" style=""><br>
<br>
<span style="font-family: 'Book Antiqua'"><b><b>Artist</b>: </b>XXXTENTACION <br>
<b><b>Album</b>: </b>Bad Vibes Forever<br>
<b><b>Release</b>: </b>06/12/2019<br>
<b><b>Format</b>: .</b>m4a Enhanced AC-3 with Joint Object Coding<br>
<b><b>Sample Rate</b>: </b>768 Kbps, 48.000 kHz - 5.1 Surround Sound<br>
<b><b>Quality</b>: </b>High Quality, Lossy Audio, Apple Core Media Audio</span><br>
<b><span style="font-family: 'Book Antiqua'"><b>Source</b>: <a href="https://music.apple.com/us/album/bad-vibes-forever/1488557241" target="_blank" class="externalLink" rel="nofollow">Apple Music</a></span></b><br>
<br>
<div class="bbCodeBlock bbCodeVfcHH HiddenContent">
<div class="attribution type">Hidden Content:</div>
<blockquote>You must reply before you can see the hidden data contained here.</blockquote>
</div>
<div class="messageTextEndMarker">&nbsp;</div>
</blockquote>
</article>]]></description>
                <author><![CDATA[SonMaxime]]></author>
                </item>

                </channel></rss>